<svg width="24" height="29" viewBox="0 0 24 29" fill="none" xmlns="http://www.w3.org/2000/svg">
<path fill-rule="evenodd" clip-rule="evenodd" d="M12.9924 2.30399C14.0174 1.05699 15.7674 0.102 17.2674 0C17.5224 1.706 16.8244 3.36799 15.9044 4.54099C14.9494 5.77398 13.3144 6.73599 11.7174 6.73599H11.5974C11.2974 5.10999 12.0624 3.43399 12.9924 2.30399ZM14.6504 7.23599C15.5064 6.91099 16.4484 6.55399 17.8214 6.55399L17.8154 6.556C19.7204 6.556 21.7404 7.59899 23.1774 9.39899C18.4684 11.987 19.2334 18.737 23.9954 20.545C23.3454 22.004 23.0304 22.652 22.1824 23.942C21.0054 25.736 19.3484 27.973 17.2854 27.995H17.2484C16.4244 27.995 15.8764 27.744 15.2874 27.473C14.5994 27.157 13.8544 26.814 12.5454 26.814H12.5084C11.1804 26.822 10.4124 27.165 9.7074 27.481C9.1024 27.752 8.54341 28.002 7.71641 28.002H7.67841C5.61641 27.98 4.0434 25.961 2.8664 24.16C-0.425601 19.13 -0.770596 13.226 1.2614 10.091C2.7094 7.867 4.98841 6.56201 7.12641 6.56201C8.27141 6.56201 9.1924 6.89 10.0694 7.203C10.8664 7.486 11.6254 7.75601 12.4814 7.75601C13.2804 7.75601 13.9354 7.50699 14.6504 7.23599Z" fill="black"/>
</svg>
