<svg width="20" height="20" viewBox="0 0 20 20" fill="none" xmlns="http://www.w3.org/2000/svg">
<path d="M5.8361 19.8C4.52766 19.8 3.3022 19.245 2.41776 18.36C0.702522 16.644 0.224887 13.649 2.62926 11.244L12.4937 1.374C13.4935 0.374003 14.7655 -0.0129969 15.9828 0.314003C17.1799 0.634003 18.1595 1.615 18.4803 2.812C18.8061 4.032 18.4206 5.305 17.4218 6.305L7.98748 15.745C7.44913 16.284 6.83994 16.603 6.22873 16.667C5.62258 16.731 5.04476 16.537 4.63998 16.132C3.90734 15.396 3.8021 14.015 5.0225 12.795L11.6487 6.165C11.9209 5.893 12.3621 5.893 12.6343 6.165C12.9065 6.437 12.9065 6.879 12.6343 7.151L6.00711 13.782C5.43436 14.354 5.38174 14.901 5.62561 15.146C5.73288 15.252 5.89479 15.301 6.082 15.28C6.36838 15.251 6.69523 15.064 7.00185 14.759L16.4362 5.32C17.0838 4.672 17.3317 3.91 17.1344 3.175C17.0358 2.81558 16.8448 2.48743 16.5802 2.22235C16.3155 1.95727 15.986 1.76426 15.6236 1.662C14.8889 1.465 14.1259 1.714 13.4783 2.362L3.61388 12.232C1.77619 14.071 2.21639 16.188 3.40238 17.375C4.58939 18.562 6.70333 19.004 8.54203 17.163L18.4064 7.293C18.4707 7.22836 18.5474 7.17702 18.6321 7.14197C18.7167 7.10693 18.8075 7.08888 18.8992 7.08888C18.991 7.08888 19.0818 7.10693 19.1664 7.14197C19.251 7.17702 19.3277 7.22836 19.392 7.293C19.523 7.42466 19.5964 7.60189 19.5964 7.7865C19.5964 7.97112 19.523 8.14834 19.392 8.28L9.52766 18.15C8.36494 19.312 7.06257 19.8 5.8361 19.8Z" fill="#E7E7E7"/>
</svg>
