<svg width="18" height="18" viewBox="0 0 18 18" fill="none" xmlns="http://www.w3.org/2000/svg">
<path d="M16.8001 12.6C16.7701 12.6 13.6621 12.57 13.1821 10.656C12.6061 8.36401 11.4061 7.2 9.6001 7.2V5.94C10.9681 5.664 12.0001 4.452 12.0001 3C12.0001 1.344 10.6561 0 9.0001 0C7.3441 0 6.0001 1.344 6.0001 3C6.0001 4.446 7.0321 5.658 8.4001 5.94V7.2C7.1581 7.2 5.5321 7.80001 4.8181 10.656C4.3381 12.57 1.2301 12.6 1.2001 12.6C0.870098 12.6 0.600098 12.87 0.600098 13.2C0.600098 13.53 0.870098 13.8 1.2001 13.8C1.3681 13.8 5.2741 13.77 5.9821 10.944C6.4081 9.23399 7.2001 8.4 8.4001 8.4V15.732L3.1441 14.418C2.8201 14.334 2.4961 14.532 2.4181 14.856C2.3401 15.18 2.5321 15.504 2.8561 15.582L12.4561 17.982C12.5041 17.994 12.5521 18 12.6001 18C12.8701 18 13.1161 17.82 13.1821 17.544C13.2601 17.22 13.0681 16.896 12.7441 16.818L11.4721 16.5L15.1441 15.582C15.4681 15.504 15.6601 15.174 15.5821 14.856C15.5041 14.532 15.1741 14.34 14.8561 14.418L9.6001 15.732V8.4C10.3621 8.4 11.4481 8.66399 12.0181 10.944C12.7261 13.764 16.6321 13.8 16.8001 13.8C17.1301 13.8 17.4001 13.53 17.4001 13.2C17.4001 12.87 17.1301 12.6 16.8001 12.6ZM5.8561 16.668L5.2561 16.818C4.9321 16.896 4.7401 17.226 4.8181 17.544C4.8841 17.82 5.1301 18 5.4001 18C5.4481 18 5.4961 17.994 5.5441 17.982L6.1441 17.832C6.4681 17.754 6.6601 17.424 6.5821 17.106C6.5041 16.782 6.1741 16.584 5.8561 16.668ZM7.2001 3C7.2001 2.01 8.0101 1.2 9.0001 1.2C9.9901 1.2 10.8001 2.01 10.8001 3C10.8001 3.99 9.9901 4.8 9.0001 4.8C8.0101 4.8 7.2001 3.99 7.2001 3Z" fill="#F26B2C"/>
</svg>
