<svg width="20" height="16" viewBox="0 0 20 16" fill="none" xmlns="http://www.w3.org/2000/svg">
<path d="M19.2857 8.3121e-07H14.1786C13.0826 8.3121e-07 12.0112 0.321094 11.0893 0.926844L10 1.63963L8.91072 0.926844C7.98976 0.32121 6.91713 -0.000596916 5.82143 8.3121e-07H0.714286C0.319196 8.3121e-07 0 0.325648 0 0.728723V13.6635C0 14.0666 0.319196 14.3923 0.714286 14.3923H5.82143C6.91741 14.3923 7.98884 14.7134 8.91072 15.3191L9.90179 15.9704C9.9308 15.9886 9.96429 16 9.99777 16C10.0313 16 10.0647 15.9909 10.0938 15.9704L11.0848 15.3191C12.0089 14.7134 13.0826 14.3923 14.1786 14.3923H19.2857C19.6808 14.3923 20 14.0666 20 13.6635V0.728723C20 0.325648 19.6808 8.3121e-07 19.2857 8.3121e-07ZM5.82143 12.7526H1.60714V1.63963H5.82143C6.61161 1.63963 7.37946 1.86963 8.04241 2.30458L9.1317 3.01736L9.28571 3.11984V13.6408C8.22321 13.0578 7.03571 12.7526 5.82143 12.7526ZM18.3929 12.7526H14.1786C12.9643 12.7526 11.7768 13.0578 10.7143 13.6408V3.11984L10.8683 3.01736L11.9576 2.30458C12.6205 1.86963 13.3884 1.63963 14.1786 1.63963H18.3929V12.7526ZM7.4308 4.55451H3.28348C3.19643 4.55451 3.125 4.63194 3.125 4.72531V5.75007C3.125 5.84344 3.19643 5.92087 3.28348 5.92087H7.42857C7.51562 5.92087 7.58705 5.84344 7.58705 5.75007V4.72531C7.58929 4.63194 7.51786 4.55451 7.4308 4.55451ZM12.4107 4.72531V5.75007C12.4107 5.84344 12.4821 5.92087 12.5692 5.92087H16.7143C16.8013 5.92087 16.8728 5.84344 16.8728 5.75007V4.72531C16.8728 4.63194 16.8013 4.55451 16.7143 4.55451H12.5692C12.4821 4.55451 12.4107 4.63194 12.4107 4.72531ZM7.4308 7.74267H3.28348C3.19643 7.74267 3.125 7.8201 3.125 7.91346V8.93823C3.125 9.0316 3.19643 9.10902 3.28348 9.10902H7.42857C7.51562 9.10902 7.58705 9.0316 7.58705 8.93823V7.91346C7.58929 7.8201 7.51786 7.74267 7.4308 7.74267ZM16.7165 7.74267H12.5692C12.4821 7.74267 12.4107 7.8201 12.4107 7.91346V8.93823C12.4107 9.0316 12.4821 9.10902 12.5692 9.10902H16.7143C16.8013 9.10902 16.8728 9.0316 16.8728 8.93823V7.91346C16.875 7.8201 16.8036 7.74267 16.7165 7.74267Z" fill="#EEA4CE"/>
</svg>
