<svg width="14" height="14" viewBox="0 0 14 14" fill="none" xmlns="http://www.w3.org/2000/svg">
<path d="M11.6667 1.66683H10.3333V1.00016C10.3333 0.823352 10.2631 0.653782 10.1381 0.528758C10.0131 0.403734 9.84349 0.333496 9.66668 0.333496C9.48987 0.333496 9.3203 0.403734 9.19527 0.528758C9.07025 0.653782 9.00001 0.823352 9.00001 1.00016V1.66683H5.00001V1.00016C5.00001 0.823352 4.92977 0.653782 4.80475 0.528758C4.67972 0.403734 4.51015 0.333496 4.33334 0.333496C4.15653 0.333496 3.98696 0.403734 3.86194 0.528758C3.73691 0.653782 3.66668 0.823352 3.66668 1.00016V1.66683H2.33334C1.80291 1.66683 1.2942 1.87754 0.91913 2.25262C0.544057 2.62769 0.333344 3.1364 0.333344 3.66683V11.6668C0.333344 12.1973 0.544057 12.706 0.91913 13.081C1.2942 13.4561 1.80291 13.6668 2.33334 13.6668H11.6667C12.1971 13.6668 12.7058 13.4561 13.0809 13.081C13.456 12.706 13.6667 12.1973 13.6667 11.6668V3.66683C13.6667 3.1364 13.456 2.62769 13.0809 2.25262C12.7058 1.87754 12.1971 1.66683 11.6667 1.66683ZM12.3333 11.6668C12.3333 11.8436 12.2631 12.0132 12.1381 12.1382C12.0131 12.2633 11.8435 12.3335 11.6667 12.3335H2.33334C2.15653 12.3335 1.98696 12.2633 1.86194 12.1382C1.73691 12.0132 1.66668 11.8436 1.66668 11.6668V7.00016H12.3333V11.6668ZM12.3333 5.66683H1.66668V3.66683C1.66668 3.49002 1.73691 3.32045 1.86194 3.19543C1.98696 3.0704 2.15653 3.00016 2.33334 3.00016H3.66668V3.66683C3.66668 3.84364 3.73691 4.01321 3.86194 4.13823C3.98696 4.26326 4.15653 4.3335 4.33334 4.3335C4.51015 4.3335 4.67972 4.26326 4.80475 4.13823C4.92977 4.01321 5.00001 3.84364 5.00001 3.66683V3.00016H9.00001V3.66683C9.00001 3.84364 9.07025 4.01321 9.19527 4.13823C9.3203 4.26326 9.48987 4.3335 9.66668 4.3335C9.84349 4.3335 10.0131 4.26326 10.1381 4.13823C10.2631 4.01321 10.3333 3.84364 10.3333 3.66683V3.00016H11.6667C11.8435 3.00016 12.0131 3.0704 12.1381 3.19543C12.2631 3.32045 12.3333 3.49002 12.3333 3.66683V5.66683Z" fill="#F8F8F8"/>
</svg>
