<svg width="10" height="10" viewBox="0 0 10 10" fill="none" xmlns="http://www.w3.org/2000/svg">
<path d="M0 8.5H10L9 9.5H1L0 8.5ZM1.5 2H2V2.5H1.5V2ZM1.5 1H2V1.5H1.5V1ZM3.5 1V1.5H2.5V1H3.5ZM3.5 2.5H2.5V2H3.5V2.5ZM2 6.615C1.82 6.67 1.655 6.755 1.5 6.85V3H2V6.615ZM1 7.26C0.81 7.48 0.66 7.725 0.58 8H8.99C8.995 7.92 9.005 7.835 9.005 7.75C9.00583 7.11332 8.78559 6.49609 8.3819 6.00375C7.97821 5.5114 7.41611 5.17448 6.79161 5.05052C6.1671 4.92657 5.51894 5.02327 4.95781 5.32411C4.39668 5.62495 3.9574 6.11127 3.715 6.7C3.42 6.575 3.095 6.5 2.75 6.5C2.665 6.5 2.585 6.51 2.5 6.52V3H3.5C4.015 3.03 4.45 2.52 4.5 2H9.5V1.5H4.5C4.45 0.975 4.015 0.515 3.5 0.5H0.5V1H1V1.5H0.5V2H1V2.5H0.5V3H1V7.26Z" fill="#855CF8"/>
</svg>
