<svg width="28" height="28" viewBox="0 0 28 28" fill="none" xmlns="http://www.w3.org/2000/svg">
<path d="M27.0667 -0.000976562H23.3333C22.9413 -0.000976562 22.5867 0.241694 22.456 0.615027L18.8627 10.499L9.66933 14.3724C9.06267 14.6337 8.484 14.9417 7.952 15.2964L5.03067 6.53236H7.46667C7.98 6.53236 8.4 6.11236 8.4 5.59902C8.4 5.08569 7.98 4.66569 7.46667 4.66569H0.933333C0.42 4.66569 0 5.08569 0 5.59902C0 6.11236 0.42 6.53236 0.933333 6.53236H3.06133L6.40267 16.547C3.63067 19.2817 2.492 23.4724 3.78 27.355C3.91067 27.7377 4.26533 27.9897 4.66667 27.9897H22.4C22.8293 27.9897 23.2027 27.7004 23.3053 27.2804L25.1813 19.7764C25.8253 17.191 24.92 14.4097 22.876 12.7017L20.7013 10.891L23.9867 1.85635H27.0667C27.58 1.85635 28 1.43635 28 0.923021C28 0.409688 27.58 -0.000976562 27.0667 -0.000976562ZM15.8667 15.8657C15.8667 16.379 16.2867 16.799 16.8 16.799L15.5587 18.4604C14.9987 18.0124 14.2987 17.7324 13.5333 17.7324C11.732 17.7324 10.2667 19.1977 10.2667 20.999C10.2667 22.8004 11.732 24.2657 13.5333 24.2657C15.3347 24.2657 16.8 22.8004 16.8 20.999C16.8 20.6817 16.744 20.383 16.66 20.103L19.1333 16.799H20.5333C21.0467 16.799 21.4667 16.379 21.4667 15.8657C21.4667 15.3524 21.0467 14.9324 20.5333 14.9324H16.8C16.2867 14.9324 15.8667 15.3524 15.8667 15.8657ZM13.5333 22.399C12.7587 22.399 12.1333 21.7737 12.1333 20.999C12.1333 20.2244 12.7587 19.599 13.5333 19.599C14.308 19.599 14.9333 20.2244 14.9333 20.999C14.9333 21.7737 14.308 22.399 13.5333 22.399ZM23.3707 19.3284L21.672 26.1324H5.36667C4.34933 22.063 6.468 17.7417 10.388 16.0897L19.4413 12.2817L21.6813 14.1484C23.184 15.399 23.8467 17.4337 23.3707 19.3284Z" fill="#855CF8"/>
</svg>
