<svg width="28" height="28" viewBox="0 0 28 28" fill="none" xmlns="http://www.w3.org/2000/svg">
<path d="M27.6304 9.96826C26.775 8.48088 25.6181 6.96434 24.2766 5.52557C24.3252 5.4964 24.3738 5.47696 24.4224 5.42836L25.3945 4.45621C25.7737 4.07708 25.7737 3.46463 25.3945 3.0855C25.0154 2.70636 24.4029 2.70636 24.0238 3.0855L23.0517 4.05764C23.0128 4.09653 22.9933 4.15485 22.9544 4.20346C21.5157 2.85218 19.9991 1.69533 18.5118 0.84957C17.5785 0.314892 16.4119 0.344058 15.537 0.927343C14.8662 1.37453 14.2441 1.88004 13.6705 2.44388C13.1066 3.00772 12.5914 3.63961 12.1539 4.31039C11.5707 5.18532 11.5415 6.35189 12.0762 7.28515C12.9219 8.76281 14.0788 10.2793 15.4106 11.7084L11.2401 15.8692C9.81109 14.5276 8.29454 13.3805 6.81689 12.5347C5.88363 12 4.71707 12.0292 3.84214 12.6125C3.17136 13.0597 2.54918 13.5652 1.97562 14.129C1.41178 14.6929 0.896545 15.3248 0.459082 15.9955C-0.124204 16.8705 -0.15337 18.037 0.381308 18.9703C1.23679 20.4577 2.39365 21.9742 3.7352 23.413C3.68659 23.4421 3.63799 23.4616 3.58938 23.5102L2.61724 24.4823C2.2381 24.8615 2.2381 25.4739 2.61724 25.8531C2.81167 26.0475 3.0547 26.135 3.30746 26.135C3.56021 26.135 3.80325 26.0378 3.99768 25.8531L4.96982 24.8809C5.0087 24.842 5.02814 24.7837 5.06703 24.7351C6.5058 26.0767 8.02234 27.2432 9.50972 28.089C9.9569 28.3417 10.4527 28.4681 10.9485 28.4681C11.4929 28.4681 12.0276 28.3126 12.4845 28.0112C13.1553 27.564 13.7774 27.0585 14.351 26.4947C14.9148 25.9308 15.4301 25.2989 15.8675 24.6379C16.4508 23.7435 16.48 22.6061 15.9453 21.6631C15.0995 20.1855 13.9427 18.6689 12.6109 17.2399L16.7813 13.0791C18.2104 14.4109 19.7172 15.5678 21.2046 16.4136C21.6518 16.6663 22.1476 16.7927 22.6434 16.7927C23.1878 16.7927 23.7224 16.6371 24.1793 16.3358C24.8501 15.8886 25.4723 15.3831 26.0458 14.8192C26.6097 14.2554 27.1249 13.6235 27.5624 12.9527C28.136 12.0681 28.1651 10.9015 27.6304 9.96826ZM14.2441 23.5491C13.8746 24.1129 13.4469 24.6379 12.9705 25.1142C12.4942 25.5906 11.9692 26.0183 11.4151 26.3877C11.1429 26.5627 10.7735 26.5724 10.4819 26.3975C8.90699 25.4934 7.27379 24.2199 5.76697 22.713C4.26015 21.2062 2.97693 19.573 2.08256 17.9981C1.90757 17.6968 1.91729 17.3274 2.09228 17.0552C2.46169 16.4913 2.88943 15.9664 3.36578 15.49C3.84213 15.0137 4.36709 14.5859 4.93093 14.2165C5.06703 14.129 5.2323 14.0804 5.39756 14.0804C5.56283 14.0804 5.71837 14.1193 5.87391 14.2068C7.44878 15.1109 9.08198 16.3844 10.5888 17.8912C12.0956 19.398 13.3788 21.0312 14.2732 22.6158C14.4288 22.9172 14.419 23.2866 14.2441 23.5491ZM25.9292 11.8639C25.5598 12.4278 25.132 12.9527 24.6557 13.4194C24.1793 13.8957 23.6544 14.3235 23.0905 14.6929C22.8183 14.8679 22.4489 14.8776 22.1573 14.7026C20.5824 13.7985 18.9492 12.525 17.4424 11.0182C15.9356 9.51135 14.6523 7.87815 13.758 6.30329C13.583 6.00192 13.5927 5.63251 13.7677 5.37003C14.1371 4.80619 14.5649 4.28123 15.0412 3.81461C15.5176 3.33826 16.0425 2.91051 16.6064 2.54109C16.7425 2.4536 16.9077 2.405 17.073 2.405C17.2382 2.405 17.3938 2.44389 17.5493 2.53138C19.1242 3.43547 20.7574 4.70897 22.2642 6.21579C23.771 7.72261 25.0543 9.35581 25.9486 10.9307C26.1139 11.232 26.1042 11.6015 25.9292 11.8639Z" fill="#455A64"/>
</svg>
