<svg width="24" height="26" viewBox="0 0 24 26" fill="none" xmlns="http://www.w3.org/2000/svg">
<path opacity="0.4" fill-rule="evenodd" clip-rule="evenodd" d="M8.18376 4.35174H15.8621V2.56396H8.18376V4.35174ZM6.43707 2.63738V2.64628C5.83768 2.70079 5.24473 2.81983 4.66786 2.99894V2.99227C4.65071 2.99948 4.63457 3.00503 4.61907 3.01036C4.59873 3.01735 4.57951 3.02395 4.56064 3.03343C4.51453 3.04455 4.4695 3.06124 4.42661 3.08238C4.30008 3.12354 4.17356 3.17249 4.05454 3.22255C4.02291 3.23479 3.99128 3.24897 3.95965 3.26316C3.92801 3.27734 3.89638 3.29153 3.86475 3.30376C3.82133 3.32435 3.77602 3.34687 3.73072 3.3694C3.68542 3.39193 3.64012 3.41446 3.59669 3.43504L3.38224 3.55852C3.34259 3.57875 3.30589 3.60246 3.26844 3.62666C3.24614 3.64107 3.22357 3.65566 3.19996 3.66977C2.87721 3.87781 2.57806 4.12144 2.30785 4.39845L2.29177 4.41514C2.25628 4.45651 2.22094 4.49665 2.18608 4.53625C2.1272 4.60313 2.06968 4.66846 2.01513 4.73554L1.99905 4.75111C1.12195 5.9615 0.68233 7.45335 0.75846 8.96523V9.44471H2.49013V8.96078C2.49013 6.85372 3.16136 5.54209 4.655 4.87015C5.22543 4.62874 5.82803 4.47967 6.44136 4.42515H6.45744V2.64517L6.43707 2.63738ZM21.9975 4.72887L22.005 4.74444C22.881 5.95594 23.3185 7.4489 23.2413 8.96078V9.44471H21.5107V8.94854C21.5471 8.05632 21.3681 7.16856 20.9885 6.36645C20.6239 5.68004 20.0406 5.14716 19.3362 4.85791C18.7754 4.6165 18.1814 4.46632 17.5755 4.41292V2.64183C18.1749 2.69746 18.7679 2.81538 19.3458 2.99449V2.98559C19.3783 3.00033 19.4031 3.00909 19.4456 3.02412L19.453 3.02675C19.4728 3.03373 19.4912 3.04071 19.5094 3.04761C19.5347 3.05721 19.5596 3.06664 19.5871 3.0757C19.7056 3.1146 19.8165 3.16044 19.9306 3.20761L19.9506 3.21588C20.0032 3.23436 20.0528 3.25729 20.0975 3.27795C20.1119 3.28465 20.1259 3.2911 20.1393 3.29709C20.2336 3.33825 20.3301 3.3872 20.4073 3.42836C20.4588 3.45508 20.509 3.48367 20.556 3.51049C20.5814 3.52499 20.606 3.53897 20.6293 3.55185C20.6677 3.57306 20.7011 3.59577 20.7332 3.61759C20.7567 3.63353 20.7795 3.64901 20.803 3.6631C21.1268 3.87225 21.4292 4.117 21.7026 4.39178L21.7123 4.40847C21.813 4.5097 21.9085 4.6165 21.9975 4.72887Z" fill="#D0FD3E"/>
<path d="M17.625 1.39616V5.33558C17.625 5.83193 17.2222 6.23396 16.725 6.23396C16.2277 6.23396 15.825 5.83193 15.825 5.33558V1.40514C15.8205 0.908786 16.221 0.50339 16.7182 0.500021C17.2155 0.496652 17.6216 0.89531 17.625 1.39167V1.39616Z" fill="#D0FD3E"/>
<path d="M8.175 1.41037V5.34005C8.175 5.83856 7.77176 6.24275 7.27444 6.24275C6.77712 6.24275 6.375 5.83856 6.375 5.34005V1.41037C6.375 0.911862 6.77712 0.508789 7.27444 0.508789C7.77176 0.508789 8.175 0.911862 8.175 1.41037Z" fill="#D0FD3E"/>
<path fill-rule="evenodd" clip-rule="evenodd" d="M0.75 19.1376V9.44482H23.25V19.1376C23.25 23.3644 20.8895 25.4999 16.2114 25.4999H7.7779C3.11052 25.4999 0.75 23.3644 0.75 19.1376ZM5.82513 14.8334C5.82513 15.4198 6.2865 15.8956 6.85517 15.8956C7.43457 15.8956 7.89594 15.4088 7.88521 14.8223C7.88521 14.2359 7.42384 13.7601 6.8659 13.7601H6.85517C6.2865 13.7601 5.82513 14.247 5.82513 14.8334ZM10.9646 14.8334C10.9646 15.4198 11.4367 15.8956 12.0054 15.8956C12.574 15.8956 13.0354 15.4198 13.0354 14.8223C13.0354 14.247 12.574 13.7712 12.0054 13.7601H11.9946C11.426 13.7712 10.9646 14.247 10.9646 14.8334ZM17.1449 15.8956C16.5762 15.8956 16.1148 15.4198 16.1148 14.8334C16.1148 14.247 16.5655 13.7712 17.1449 13.7712C17.7135 13.7712 18.1749 14.247 18.1749 14.8334C18.1749 15.4198 17.7135 15.8956 17.1449 15.8956ZM17.1449 20.4322C16.5762 20.4322 16.1148 19.9564 16.1041 19.37C16.1041 18.7836 16.5655 18.3078 17.1341 18.3078H17.1449C17.7135 18.3078 18.1749 18.7836 18.1749 19.37C18.1749 19.9564 17.7135 20.4322 17.1449 20.4322ZM12.0054 20.4322C11.4367 20.4322 10.9646 19.9564 10.9646 19.37C10.9646 18.7836 11.426 18.3078 11.9946 18.2967H12.0054C12.574 18.3078 13.0247 18.7836 13.0354 19.3589C13.0354 19.9564 12.574 20.4322 12.0054 20.4322ZM6.85515 20.4322C6.28648 20.4322 5.82511 19.9564 5.82511 19.37C5.81438 18.7836 6.27575 18.2967 6.85515 18.2967C7.42382 18.2967 7.88519 18.7725 7.88519 19.3589C7.88519 19.9454 7.42382 20.4322 6.85515 20.4322Z" fill="#D0FD3E"/>
</svg>
