<svg width="24" height="24" viewBox="0 0 24 24" fill="none" xmlns="http://www.w3.org/2000/svg">
<path fill-rule="evenodd" clip-rule="evenodd" d="M22.6752 0H1.3248C0.593229 0 0.000257143 0.593134 0 1.32513V22.6749C0.000257143 23.4069 0.593229 24 1.3248 24H12V14.5714H9.13123V11.1429H12V8.4103C12 5.31087 14.1498 3.62313 16.919 3.62313C18.2438 3.62313 19.6688 3.72342 19.9998 3.76713V7.00457H17.7938C16.2873 7.00457 16.0002 7.71685 16.0002 8.76685V11.1429H19.5895L19.1207 14.5714H16.0002V24H22.6752C23.4068 24 23.9997 23.4069 24 22.6749V1.32513C23.9997 0.593134 23.4068 0 22.6752 0Z" fill="#3B5998"/>
</svg>
