<svg width="20" height="20" viewBox="0 0 20 20" fill="none" xmlns="http://www.w3.org/2000/svg">
<mask id="mask0_804_1481" style="mask-type:alpha" maskUnits="userSpaceOnUse" x="0" y="0" width="20" height="20">
<path d="M7.9319 18.3332C7.52356 17.0015 6.90773 16.009 6.08398 15.3553C4.84856 14.3748 2.88565 14.9844 2.16065 13.9728C1.43565 12.9611 2.66856 11.1011 3.10106 10.0036C3.53398 8.90609 1.44273 8.51817 1.6869 8.2065C1.8494 7.99859 2.90648 7.39942 4.85731 6.40817C5.41148 3.24692 7.45856 1.6665 10.9994 1.6665C16.3102 1.6665 18.3336 6.169 18.3336 9.03317C18.3336 11.8969 15.8836 14.9819 12.3936 15.6473C12.0815 16.1015 12.5315 16.9973 13.7436 18.3336" stroke="white" stroke-width="1.94458" stroke-linecap="round" stroke-linejoin="round"/>
<path fill-rule="evenodd" clip-rule="evenodd" d="M8.12537 6.04153C7.85287 7.09737 7.9337 7.83903 8.36829 8.2657C8.80245 8.69278 9.54245 8.97195 10.5883 9.1032C10.3508 10.4657 10.6404 11.1044 11.4562 11.0203C12.272 10.9361 12.7625 10.5974 12.927 10.0036C14.202 10.3619 14.8933 10.062 15.0004 9.10362C15.1608 7.66612 14.3858 6.51987 14.0679 6.51987C13.7504 6.51987 12.927 6.48112 12.927 6.04153C12.927 5.60195 11.9654 5.35403 11.0975 5.35403C10.2295 5.35403 10.7516 4.76862 9.55995 4.99987C8.76537 5.15403 8.28704 5.50112 8.12537 6.04153Z" fill="white" stroke="white" stroke-width="1.66667" stroke-linejoin="round"/>
<path d="M12.7084 10.625C12.2846 10.8879 11.7034 11.325 11.4584 11.6667C10.8463 12.5208 10.35 13.0404 10.2417 13.5867" stroke="white" stroke-width="1.66667" stroke-linecap="round"/>
</mask>
<g mask="url(#mask0_804_1481)">
<path d="M0 0H20V20H0V0Z" fill="white"/>
</g>
</svg>
