<svg width="24" height="24" viewBox="0 0 24 24" fill="none" xmlns="http://www.w3.org/2000/svg">
<path fill-rule="evenodd" clip-rule="evenodd" d="M23.8593 10.1503L23.7353 9.63687H12.353V14.3631H19.1542C18.4474 17.652 15.1708 19.3834 12.4945 19.3834C10.547 19.3834 8.49454 18.5803 7.13586 17.2886C5.68807 15.8906 4.86675 13.9843 4.85364 11.9914C4.85364 10.0003 5.76496 8.00915 7.09217 6.69944C8.41939 5.38972 10.4238 4.65687 12.4159 4.65687C14.6981 4.65687 16.3338 5.84571 16.9454 6.38742L20.3687 3.04714C19.3648 2.18142 16.6055 0 12.3058 0C8.98821 0 5.80778 1.24628 3.48187 3.52028C1.18742 5.75914 0 8.99657 0 12C0 15.0034 1.12363 18.0797 3.34731 20.3357C5.72302 22.7426 9.08868 24 12.5531 24C15.7055 24 18.6938 22.788 20.8239 20.5894C22.9174 18.4251 24 15.4311 24 12.2914C24 10.9697 23.8646 10.1846 23.8593 10.1503Z" fill="#DE5246"/>
</svg>
