<svg width="24" height="24" viewBox="0 0 24 24" fill="none" xmlns="http://www.w3.org/2000/svg">
<path d="M12 2.06494C16.667 8.15494 19 12.4879 19 15.0649C19 16.9215 18.2625 18.7019 16.9497 20.0147C15.637 21.3274 13.8565 22.0649 12 22.0649C10.1435 22.0649 8.36301 21.3274 7.05025 20.0147C5.7375 18.7019 5 16.9215 5 15.0649C5 12.4879 7.333 8.15494 12 2.06494Z" fill="#CFDAEB"/>
<path d="M17 19C17 20.3807 14.7614 22 12 22C9.23858 22 7 20.3807 7 19C7 17.6193 9.23858 17 12 17C14.7614 17 17 17.6193 17 19Z" fill="#3CB6F9"/>
</svg>
