<svg width="18" height="18" viewBox="0 0 18 18" fill="none" xmlns="http://www.w3.org/2000/svg">
<path d="M17.4 -0.000976562H15C14.748 -0.000976562 14.52 0.155026 14.436 0.395026L12.126 6.74902L6.216 9.23903C5.826 9.40702 5.454 9.60502 5.112 9.83302L3.234 4.19902H4.8C5.13 4.19902 5.4 3.92902 5.4 3.59902C5.4 3.26902 5.13 2.99902 4.8 2.99902H0.6C0.27 2.99902 0 3.26902 0 3.59902C0 3.92902 0.27 4.19902 0.6 4.19902H1.968L4.116 10.637C2.334 12.395 1.602 15.089 2.43 17.585C2.514 17.831 2.742 17.993 3 17.993H14.4C14.676 17.993 14.916 17.807 14.982 17.537L16.188 12.713C16.602 11.051 16.02 9.26302 14.706 8.16502L13.308 7.00102L15.42 1.19302H17.4C17.73 1.19302 18 0.923022 18 0.593022C18 0.263022 17.73 -0.000976562 17.4 -0.000976562ZM10.2 10.199C10.2 10.529 10.47 10.799 10.8 10.799L10.002 11.867C9.642 11.579 9.192 11.399 8.7 11.399C7.542 11.399 6.6 12.341 6.6 13.499C6.6 14.657 7.542 15.599 8.7 15.599C9.858 15.599 10.8 14.657 10.8 13.499C10.8 13.295 10.764 13.103 10.71 12.923L12.3 10.799H13.2C13.53 10.799 13.8 10.529 13.8 10.199C13.8 9.86902 13.53 9.59902 13.2 9.59902H10.8C10.47 9.59902 10.2 9.86902 10.2 10.199ZM8.7 14.399C8.202 14.399 7.8 13.997 7.8 13.499C7.8 13.001 8.202 12.599 8.7 12.599C9.198 12.599 9.6 13.001 9.6 13.499C9.6 13.997 9.198 14.399 8.7 14.399ZM15.024 12.425L13.932 16.799H3.45C2.796 14.183 4.158 11.405 6.678 10.343L12.498 7.89503L13.938 9.09503C14.904 9.89903 15.33 11.207 15.024 12.425Z" fill="#855CF8"/>
</svg>
