<svg width="27" height="28" viewBox="0 0 27 28" fill="none" xmlns="http://www.w3.org/2000/svg">
<path d="M26.974 12.101C26.974 8.78917 24.2727 6.08788 20.9608 6.08788C18.1578 6.08788 15.7433 8.05834 15.1142 10.7134C12.9957 10.6394 11.0438 11.509 9.61914 12.9891L8.90681 12.3786C7.95395 11.5645 7.28788 10.4914 6.9826 9.27022L6.79758 8.54865L7.74119 8.23412C8.68479 7.91958 9.38785 7.124 9.58212 6.15264L9.97992 4.18218C10.2575 2.81304 9.46187 1.44389 8.12973 0.99984L5.65972 0.176503C4.35533 -0.258293 2.91217 0.343016 2.29236 1.5734L2.07033 2.0267C0.201631 5.77335 -0.316422 10.0843 0.627178 14.164L0.738185 14.6543C1.60778 18.4194 3.39321 21.9626 5.90948 24.9044L6.83458 25.9867C7.46365 26.7176 8.35175 27.1154 9.2861 27.1154C9.55438 27.1154 9.82265 27.0784 10.0909 27.0136L16.0486 25.4502C20.1097 24.5158 22.3392 21.9256 22.3392 18.1419C22.3392 18.0864 22.3392 18.0309 22.3392 17.9754C25.0035 17.3186 26.974 14.9041 26.974 12.101ZM14.9477 14.4138C12.9032 14.4138 11.2473 16.0697 11.2473 18.1142C11.2473 18.623 11.6636 19.0393 12.1724 19.0393C12.6812 19.0393 13.0975 18.623 13.0975 18.1142C13.0975 17.0965 13.9301 16.264 14.9477 16.264C15.4565 16.264 15.8728 15.8477 15.8728 15.3389C15.8728 14.8301 15.4565 14.4138 14.9477 14.4138ZM21.2754 16.2455L20.2855 16.3195L20.4335 17.3001C20.4798 17.6146 20.4983 17.8644 20.4983 18.1142C20.4983 21.0282 18.8609 22.8784 15.6138 23.6278L9.63763 25.2004C9.12882 25.3299 8.59227 25.1634 8.24998 24.7564L7.32488 23.6833C5.00288 20.9727 3.34697 17.7071 2.55138 14.2287L2.44036 13.7384C1.59852 10.0751 2.05183 6.20814 3.73551 2.85004L3.95752 2.39673C4.11479 2.07295 4.44783 1.88794 4.79012 1.88794C4.88263 1.88794 4.98439 1.90643 5.0769 1.93418L7.54691 2.75752C7.99096 2.90554 8.25923 3.35884 8.16672 3.82139L7.76894 5.79184C7.70418 6.11563 7.4729 6.38391 7.15837 6.48567L4.5866 7.34601L5.17866 9.73277C5.57645 11.3239 6.44604 12.7301 7.68567 13.794L9.8689 15.6627L10.461 14.8578C11.5248 13.4054 13.153 12.5728 14.9385 12.5728C15.179 12.5728 15.438 12.5913 15.7525 12.6376L16.7331 12.7856L16.8071 11.7957C16.9737 9.64026 18.7869 7.94732 20.9516 7.94732C23.2458 7.94732 25.1145 9.81602 25.1145 12.1103C25.1238 14.2657 23.4308 16.0882 21.2754 16.2455Z" fill="#2DAF2D"/>
</svg>
