<svg width="24" height="24" viewBox="0 0 24 24" fill="none" xmlns="http://www.w3.org/2000/svg">
<path d="M11.4188 3.12922C12.0806 2.65645 13 3.12958 13 3.94295V20.0566C13 20.8699 12.0806 21.3431 11.4188 20.8703L6 16.9998H3C1.89543 16.9998 1 16.1043 1 14.9998V8.99976C1 7.89519 1.89543 6.99976 3 6.99976H6L11.4188 3.12922Z" fill="white"/>
<path d="M20.2707 11.5925C19.7448 11.0593 19.2317 10.5394 18.7195 10.0215C18.5234 9.82147 18.3218 9.62522 18.1376 9.41271C17.7638 8.98192 17.7794 8.42574 18.1633 8.03229C18.248 7.94197 18.3492 7.87032 18.4609 7.82158C18.5727 7.77284 18.6926 7.74801 18.8136 7.74854C18.9347 7.74908 19.0544 7.77497 19.1657 7.8247C19.277 7.87442 19.3776 7.94696 19.4616 8.03803C20.0316 8.60666 20.5813 9.19731 21.1311 9.77648C21.6753 10.3394 21.5287 10.2858 22.0125 9.78988C22.5623 9.22891 23.0901 8.65549 23.6362 8.09547C24.1392 7.57853 24.8869 7.66756 25.1846 8.26874C25.3624 8.62868 25.2854 9.1303 24.9785 9.45674C24.3728 10.102 23.7644 10.7462 23.146 11.3713C22.9471 11.5704 22.9554 11.692 23.146 11.8873C23.7681 12.5153 24.3765 13.1586 24.9785 13.8019C25.2854 14.1283 25.3606 14.6309 25.1773 14.9889C24.8676 15.593 24.1337 15.6772 23.6297 15.1574C23.0232 14.5304 22.4175 13.9024 21.8265 13.2601C21.6359 13.0523 21.5187 13.0543 21.329 13.2601C20.7078 13.9302 20.071 14.5888 19.436 15.2484C19.0695 15.6313 18.7616 15.6763 18.3759 15.547C17.7638 15.3489 17.5686 14.4251 18.0772 13.9129C18.7387 13.2428 19.381 12.5507 20.0306 11.8672C20.0975 11.7916 20.1608 11.716 20.2707 11.5925Z" fill="white"/>
</svg>
