<svg width="18" height="18" viewBox="0 0 18 18" fill="none" xmlns="http://www.w3.org/2000/svg"><path d="M3.015 1.836a3.924 3.924 0 0 0 0.28 1.732 4.262 4.262 0 0 0 1.02 1.487 4.775 4.775 0 0 0 -2.25 1.298 4.073 4.073 0 0 0 -1.104 2.199c-0.302 1.953 0.14 3.942 1.255 5.637l0.321 0.49a0.63 0.63 0 0 0 0.04 0.051l1.298 1.581a3.101 3.101 0 0 0 1.032 0.811 3.476 3.476 0 0 0 2.665 0.154 3.207 3.207 0 0 0 1.138 -0.686 0.437 0.437 0 0 1 0.578 0 3.238 3.238 0 0 0 1.137 0.686 3.476 3.476 0 0 0 2.665 -0.154 3.101 3.101 0 0 0 1.033 -0.81l1.298 -1.582a0.645 0.645 0 0 0 0.039 -0.053l0.321 -0.489c1.116 -1.694 1.56 -3.682 1.259 -5.635a3.993 3.993 0 0 0 -0.642 -1.625 4.453 4.453 0 0 0 -1.303 -1.26 4.96 4.96 0 0 0 -1.75 -0.686 5.177 5.177 0 0 0 -1.906 0l-1.743 0.326h-0.002c0.027 -0.647 0.139 -1.343 0.358 -1.939 0.266 -0.72 0.634 -1.153 1.045 -1.307a0.658 0.658 0 0 0 0.371 -0.338 0.568 0.568 0 0 0 -0.001 -0.476 0.659 0.659 0 0 0 -0.373 -0.336 0.755 0.755 0 0 0 -0.527 0.001c-0.964 0.364 -1.512 1.228 -1.82 2.062l-0.042 0.118a4.38 4.38 0 0 0 -0.864 -1.07A4.828 4.828 0 0 0 6.166 1.044a5.207 5.207 0 0 0 -1.973 -0.274 1.317 1.317 0 0 0 -0.813 0.329 1.088 1.088 0 0 0 -0.366 0.735v0.001Zm2.682 6.482c-0.318 0.057 -0.61 0.26 -0.792 0.645 -0.186 0.393 -0.252 0.976 -0.051 1.704a0.572 0.572 0 0 1 -0.083 0.466 0.687 0.687 0 0 1 -0.42 0.28 0.751 0.751 0 0 1 -0.516 -0.069 0.633 0.633 0 0 1 -0.315 -0.375c-0.257 -0.931 -0.208 -1.8 0.12 -2.496a2.425 2.425 0 0 1 1.787 -1.375 0.758 0.758 0 0 1 0.53 0.082 0.662 0.662 0 0 1 0.196 0.173 0.564 0.564 0 0 1 -0.003 0.704 0.663 0.663 0 0 1 -0.197 0.172 0.734 0.734 0 0 1 -0.256 0.089Z" fill="white"/></svg>