<svg width="64" height="64" viewBox="0 0 64 64" fill="none" xmlns="http://www.w3.org/2000/svg">
<path fill-rule="evenodd" clip-rule="evenodd" d="M64 32C64 49.6731 49.6731 64 32 64C14.3269 64 0 49.6731 0 32C0 14.3269 14.3269 0 32 0C49.6731 0 64 14.3269 64 32ZM21 22C21 20.8954 21.8954 20 23 20H27C28.1046 20 29 20.8954 29 22V42C29 43.1046 28.1046 44 27 44H23C21.8954 44 21 43.1046 21 42V22ZM36.3333 20C35.2287 20 34.3333 20.8954 34.3333 22V42C34.3333 43.1046 35.2287 44 36.3333 44H40.3333C41.4378 44 42.3333 43.1046 42.3333 42V22C42.3333 20.8954 41.4378 20 40.3333 20H36.3333Z" fill="white"/>
</svg>
