<svg width="12" height="10" viewBox="0 0 12 10" fill="none" xmlns="http://www.w3.org/2000/svg">
<path d="M10.875 0.886719H8.19375C7.61836 0.886719 7.05586 1.05195 6.57187 1.36367L6 1.73047L5.42813 1.36367C4.94462 1.05201 4.38149 0.886412 3.80625 0.886719H1.125C0.917578 0.886719 0.75 1.0543 0.75 1.26172V7.91797C0.75 8.12539 0.917578 8.29297 1.125 8.29297H3.80625C4.38164 8.29297 4.94414 8.4582 5.42813 8.76992L5.94844 9.10508C5.96367 9.11445 5.98125 9.12031 5.99883 9.12031C6.01641 9.12031 6.03398 9.11563 6.04922 9.10508L6.56953 8.76992C7.05469 8.4582 7.61836 8.29297 8.19375 8.29297H10.875C11.0824 8.29297 11.25 8.12539 11.25 7.91797V1.26172C11.25 1.0543 11.0824 0.886719 10.875 0.886719ZM3.80625 7.44922H1.59375V1.73047H3.80625C4.22109 1.73047 4.62422 1.84883 4.97227 2.07266L5.54414 2.43945L5.625 2.49219V7.90625C5.06719 7.60625 4.44375 7.44922 3.80625 7.44922ZM10.4062 7.44922H8.19375C7.55625 7.44922 6.93281 7.60625 6.375 7.90625V2.49219L6.45586 2.43945L7.02773 2.07266C7.37578 1.84883 7.77891 1.73047 8.19375 1.73047H10.4062V7.44922ZM4.65117 3.23047H2.47383C2.42813 3.23047 2.39062 3.27031 2.39062 3.31836V3.8457C2.39062 3.89375 2.42813 3.93359 2.47383 3.93359H4.65C4.6957 3.93359 4.7332 3.89375 4.7332 3.8457V3.31836C4.73438 3.27031 4.69687 3.23047 4.65117 3.23047ZM7.26562 3.31836V3.8457C7.26562 3.89375 7.30312 3.93359 7.34883 3.93359H9.525C9.5707 3.93359 9.6082 3.89375 9.6082 3.8457V3.31836C9.6082 3.27031 9.5707 3.23047 9.525 3.23047H7.34883C7.30312 3.23047 7.26562 3.27031 7.26562 3.31836ZM4.65117 4.87109H2.47383C2.42813 4.87109 2.39062 4.91094 2.39062 4.95898V5.48633C2.39062 5.53438 2.42813 5.57422 2.47383 5.57422H4.65C4.6957 5.57422 4.7332 5.53438 4.7332 5.48633V4.95898C4.73438 4.91094 4.69687 4.87109 4.65117 4.87109ZM9.52617 4.87109H7.34883C7.30312 4.87109 7.26562 4.91094 7.26562 4.95898V5.48633C7.26562 5.53438 7.30312 5.57422 7.34883 5.57422H9.525C9.5707 5.57422 9.6082 5.53438 9.6082 5.48633V4.95898C9.60938 4.91094 9.57188 4.87109 9.52617 4.87109Z" fill="#855CF8"/>
</svg>
