<svg width="18" height="18" viewBox="0 0 18 18" fill="none" xmlns="http://www.w3.org/2000/svg">
<path d="M8.99154 0.666504C4.39154 0.666504 0.658203 4.39984 0.658203 8.99984C0.658203 13.5998 4.39154 17.3332 8.99154 17.3332C13.5915 17.3332 17.3249 13.5998 17.3249 8.99984C17.3249 4.39984 13.5915 0.666504 8.99154 0.666504ZM11.9999 5.94984C12.8915 5.94984 13.6082 6.6665 13.6082 7.55817C13.6082 8.44984 12.8915 9.1665 11.9999 9.1665C11.1082 9.1665 10.3915 8.44984 10.3915 7.55817C10.3832 6.6665 11.1082 5.94984 11.9999 5.94984ZM6.99987 4.63317C8.0832 4.63317 8.96654 5.5165 8.96654 6.59984C8.96654 7.68317 8.0832 8.5665 6.99987 8.5665C5.91654 8.5665 5.0332 7.68317 5.0332 6.59984C5.0332 5.50817 5.9082 4.63317 6.99987 4.63317ZM6.99987 12.2415V15.3665C4.99987 14.7415 3.41654 13.1998 2.71654 11.2332C3.59154 10.2998 5.77487 9.82484 6.99987 9.82484C7.44154 9.82484 7.99987 9.8915 8.5832 10.0082C7.21654 10.7332 6.99987 11.6915 6.99987 12.2415ZM8.99154 15.6665C8.76654 15.6665 8.54987 15.6582 8.3332 15.6332V12.2415C8.3332 11.0582 10.7832 10.4665 11.9999 10.4665C12.8915 10.4665 14.4332 10.7915 15.1999 11.4248C14.2249 13.8998 11.8165 15.6665 8.99154 15.6665Z" fill="white"/>
</svg>
