<svg width="31" height="42" viewBox="0 0 31 42" fill="none" xmlns="http://www.w3.org/2000/svg">
<path d="M20.3123 8.3125C19.281 8.3125 18.3979 7.945 17.6629 7.21C16.9279 6.475 16.561 5.5925 16.5623 4.5625C16.5623 3.53125 16.9298 2.64813 17.6648 1.91313C18.3998 1.17813 19.2823 0.811253 20.3123 0.812503C21.3435 0.812503 22.2267 1.18 22.9617 1.915C23.6967 2.65 24.0635 3.5325 24.0623 4.5625C24.0623 5.59375 23.6948 6.47688 22.9598 7.21188C22.2248 7.94688 21.3423 8.31375 20.3123 8.3125ZM21.2498 41.125C20.7185 41.125 20.2729 40.945 19.9129 40.585C19.5529 40.225 19.3735 39.78 19.3748 39.25V29.875L15.4373 26.125L14.3592 30.8125C14.1092 31.8125 13.5623 32.5863 12.7185 33.1338C11.8748 33.6813 10.9529 33.845 9.95291 33.625L2.49978 32.125C1.96853 32.0313 1.55416 31.7656 1.25666 31.3281C0.959156 30.8906 0.873531 30.4063 0.999781 29.875C1.09353 29.3438 1.35916 28.9294 1.79666 28.6319C2.23416 28.3344 2.71853 28.2488 3.24978 28.375L10.3748 29.875L13.3748 14.6875L9.99978 16V20.5C9.99978 21.0313 9.81978 21.4769 9.45978 21.8369C9.09978 22.1969 8.65478 22.3763 8.12478 22.375C7.59353 22.375 7.14791 22.195 6.78791 21.835C6.42791 21.475 6.24853 21.03 6.24978 20.5V16.0469C6.24978 15.2969 6.45291 14.6013 6.85916 13.96C7.26541 13.3188 7.81228 12.8581 8.49978 12.5781L13.656 10.375C14.7498 9.90625 15.5548 9.60125 16.071 9.46C16.5873 9.31875 17.0635 9.24875 17.4998 9.25C18.156 9.25 18.7654 9.42188 19.3279 9.76563C19.8904 10.1094 20.3435 10.5625 20.6873 11.125L22.5623 14.125C23.2498 15.2188 24.1485 16.1563 25.2585 16.9375C26.3685 17.7188 27.626 18.2344 29.031 18.4844C29.4998 18.5469 29.8829 18.75 30.1804 19.0938C30.4779 19.4375 30.626 19.8281 30.6248 20.2656C30.6248 20.8594 30.4135 21.3594 29.991 21.7656C29.5685 22.1719 29.0767 22.3281 28.5154 22.2344C26.8592 21.9844 25.3279 21.4606 23.9217 20.6631C22.5154 19.8656 21.3123 18.8738 20.3123 17.6875L19.1873 23.3125L21.9529 25.9375C22.3279 26.3125 22.6173 26.7269 22.821 27.1806C23.0248 27.6344 23.126 28.1263 23.1248 28.6563V39.25C23.1248 39.7813 22.9448 40.2269 22.5848 40.5869C22.2248 40.9469 21.7798 41.1263 21.2498 41.125Z" fill="#4CD964"/>
</svg>
