<svg width="20" height="20" viewBox="0 0 20 20" fill="none" xmlns="http://www.w3.org/2000/svg">
<path d="M13.9029 0.960043L4.76506 3.96004C-1.37742 5.99004 -1.37742 9.30004 4.76506 11.32L7.47706 12.21L8.37769 14.89C10.4218 20.96 13.7814 20.96 15.8256 14.89L18.8715 5.87004C20.2275 1.82004 18.0012 -0.389957 13.9029 0.960043ZM14.2267 6.34004L10.3813 10.16C10.2295 10.31 10.0373 10.38 9.845 10.38C9.65273 10.38 9.46046 10.31 9.30867 10.16C9.01521 9.87004 9.01521 9.39004 9.30867 9.10004L13.154 5.28004C13.4475 4.99004 13.9332 4.99004 14.2267 5.28004C14.5202 5.57004 14.5202 6.05004 14.2267 6.34004Z" fill="white"/>
</svg>
