<svg width="26" height="28" viewBox="0 0 26 28" fill="none" xmlns="http://www.w3.org/2000/svg">
<path d="M13.9165 7.58333H22.1665C24.1923 7.58333 25.8332 5.9425 25.8332 3.91667C25.8332 1.89083 24.1923 0.25 22.1665 0.25H6.58317C3.04484 0.25 0.166504 3.12833 0.166504 6.66667V7.58333C0.166504 10.6175 2.63234 13.0833 5.6665 13.0833C6.67484 13.0833 7.49984 13.9083 7.49984 14.9167V16.75H6.58317C6.20734 16.75 5.86817 16.9792 5.73067 17.3275C4.4565 20.4992 4.4565 24.0008 5.73067 27.1725C5.86817 27.5208 6.20734 27.75 6.58317 27.75H10.2498C10.6257 27.75 10.9648 27.5208 11.1023 27.1725C12.3765 24.0008 12.3765 20.4992 11.1023 17.3275C10.9648 16.9792 10.6257 16.75 10.2498 16.75H9.33317V14.9167C9.33317 12.8908 7.69234 11.25 5.6665 11.25C3.64067 11.25 1.99984 9.60917 1.99984 7.58333V6.66667C1.99984 4.13667 4.05317 2.08333 6.58317 2.08333H22.1665C23.1748 2.08333 23.9998 2.90833 23.9998 3.91667C23.9998 4.925 23.1748 5.75 22.1665 5.75H13.9165C11.8907 5.75 10.2498 7.39083 10.2498 9.41667C10.2498 11.4425 11.8907 13.0833 13.9165 13.0833H16.6665C17.6748 13.0833 18.4998 13.9083 18.4998 14.9167V16.75H17.5832C17.2073 16.75 16.8682 16.9792 16.7307 17.3275C15.4565 20.4992 15.4565 24.0008 16.7307 27.1725C16.8682 27.5208 17.2073 27.75 17.5832 27.75H21.2498C21.6257 27.75 21.9648 27.5208 22.1023 27.1725C23.3765 24.0008 23.3765 20.4992 22.1023 17.3275C21.9648 16.9792 21.6257 16.75 21.2498 16.75H20.3332V14.9167C20.3332 12.8908 18.6923 11.25 16.6665 11.25H13.9165C12.9082 11.25 12.0832 10.425 12.0832 9.41667C12.0832 8.40833 12.9082 7.58333 13.9165 7.58333ZM9.60817 25.9167H7.21567C6.40901 23.5333 6.40901 20.9667 7.21567 18.5833H9.60817C10.424 20.9667 10.424 23.5333 9.60817 25.9167ZM20.6082 25.9167H18.2157C17.409 23.5333 17.409 20.9667 18.2157 18.5833H20.6082C21.424 20.9667 21.424 23.5333 20.6082 25.9167Z" fill="#DDA552"/>
</svg>
