<svg width="12" height="12" viewBox="0 0 12 12" fill="none" xmlns="http://www.w3.org/2000/svg">
<path d="M1.30451 3.133C1.39601 3.01 1.51651 2.8435 1.61301 2.7245C1.90201 2.3965 1.93951 2.3535 2.20251 2.111C2.28051 2.047 2.37301 1.97 2.46351 1.8975C1.79601 2.4625 1.71101 3.088 2.32351 3.4745C2.32251 3.4745 2.32251 3.4745 2.32251 3.4755C3.17901 3.9915 5.05601 3.88 6.53701 3.219C7.97151 2.579 8.50101 1.6635 7.79301 1.1195C7.17151 1.003 6.43051 0.9895 5.64651 1.0945L5.56501 0.96L5.63251 0.737C6.09351 0.6955 6.53151 0.7055 6.90951 0.77C7.00101 0.7855 7.12151 0.812 7.21151 0.831C7.38551 0.8735 7.48001 0.899 7.59351 0.9355C7.70951 0.97 7.80851 1.0045 7.98101 1.0685C8.15001 1.135 8.22301 1.165 8.35851 1.2325C8.51025 1.30173 8.65769 1.38004 8.80001 1.467C9.92801 2.1765 9.22651 3.471 7.23601 4.358C5.25101 5.242 2.72151 5.381 1.58801 4.68C1.58751 4.679 1.58601 4.678 1.58301 4.677H1.58501C0.96601 4.285 0.90101 3.716 1.30451 3.133ZM6.46901 8.093L6.45301 7.296L5.88651 6.666C4.01501 7.09 2.17551 6.999 1.15251 6.3965C1.14901 6.3925 1.14051 6.3885 1.13701 6.3845C0.55801 6.028 0.41501 5.568 0.45851 5.068C0.32301 5.7995 0.31201 6.0635 0.33151 6.6895C0.35551 7.0815 0.58201 7.443 1.03751 7.728L1.04101 7.732C2.13151 8.41 4.40351 8.557 6.46901 8.093ZM8.83151 9.0055C6.19001 10.065 2.88401 10.1275 1.44801 9.147C1.60309 9.52598 1.8141 9.87958 2.07401 10.196C3.39201 11.096 6.42651 11.0385 8.85001 10.066C10.2685 9.4975 11.1635 8.741 11.3985 8.032L11.4645 7.8185C11.621 7.2775 11.6505 6.827 11.6755 6.426C11.647 7.2965 10.6215 8.2865 8.83151 9.0055ZM3.00051 11.046C3.08351 11.125 3.34451 11.4455 4.66701 11.7995C5.02451 11.8785 5.92451 12.132 7.58701 11.7635L7.59701 11.612L7.46551 11.406C5.92301 11.771 4.20951 11.649 3.00051 11.046ZM6.81751 4.7415L8.22201 5.806C8.22201 5.806 8.52251 6.0225 8.23901 6.1745C7.95651 6.325 7.23101 6.6935 7.23101 6.6935L6.51451 6.426L6.15501 6.586L6.78901 7.1365L6.79401 7.993L7.16651 7.8275L7.41351 7.104C7.41351 7.104 8.17201 6.812 8.47301 6.702C8.77551 6.5945 8.73501 6.9625 8.73501 6.9625L8.58601 8.718L9.08101 8.498L9.89601 6.1295C9.89601 6.1295 10.328 5.9195 10.632 5.735C10.9355 5.5505 11.0395 5.2445 11.0395 5.2445C11.0395 5.2445 10.7435 5.117 10.4025 5.2195C10.0615 5.321 9.61701 5.502 9.61701 5.502L7.31101 4.5225L6.81751 4.7415ZM3.84601 1.3735L4.79951 2.133L5.06001 2.094L4.54101 1.4125C4.54101 1.4125 4.42801 1.2715 4.58001 1.238C4.73301 1.204 5.12001 1.125 5.12001 1.125L5.41101 1.3575L5.60701 1.3285L5.38501 0.9755L5.50201 0.584L5.31251 0.6115L5.08801 0.9095C5.08801 0.9095 4.69401 0.9465 4.53901 0.9595C4.38301 0.9715 4.45001 0.804 4.45001 0.804L4.74901 0L4.48701 0.0385L3.79701 1.043C3.79701 1.043 3.56701 1.085 3.40051 1.1325C3.23351 1.1795 3.14551 1.3085 3.14551 1.3085C3.14551 1.3085 3.26801 1.4075 3.44051 1.404C3.61451 1.4005 3.84601 1.3735 3.84601 1.3735ZM8.55851 11.1325L7.94151 10.81L7.79951 10.8595L8.16501 11.1865C8.16501 11.1865 8.24301 11.253 8.16101 11.2885C8.07901 11.3235 7.87001 11.4095 7.87001 11.4095L7.69751 11.3325L7.59501 11.3695L7.73851 11.5225L7.72451 11.746L7.83151 11.709L7.91151 11.5275C7.91151 11.5275 8.12851 11.463 8.21501 11.44C8.30101 11.4165 8.28151 11.5175 8.28151 11.5175L8.20001 12L8.34251 11.9505L8.62201 11.3125C8.62201 11.3125 8.74551 11.264 8.83401 11.2195C8.92251 11.175 8.95751 11.093 8.95751 11.093C8.95751 11.093 8.87901 11.05 8.78201 11.0715C8.68451 11.092 8.55851 11.1325 8.55851 11.1325Z" fill="#855CF8"/>
</svg>
