<svg width="24" height="24" viewBox="0 0 24 24" fill="none" xmlns="http://www.w3.org/2000/svg">
<path d="M11.4188 3.12922C12.0806 2.65645 13 3.12958 13 3.94295V20.0566C13 20.8699 12.0806 21.3431 11.4188 20.8703L6 16.9998H3C1.89543 16.9998 1 16.1043 1 14.9998V8.99976C1 7.89519 1.89543 6.99976 3 6.99976H6L11.4188 3.12922Z" fill="white"/>
<path d="M15.9938 16.9052C17.2347 15.6421 18 13.9103 18 11.9998C18 10.0813 17.2282 8.34305 15.9781 7.07861" stroke="white" stroke-width="2" stroke-linecap="round" stroke-linejoin="round"/>
<path d="M18.7782 4.22168C20.7688 6.21229 22 8.96229 22 11.9999C22 15.0374 20.7688 17.7874 18.7782 19.778" stroke="white" stroke-width="2" stroke-linecap="round" stroke-linejoin="round"/>
</svg>
