<svg width="34" height="46" viewBox="0 0 34 46" fill="none" xmlns="http://www.w3.org/2000/svg">
<path d="M0 1.27783L3.81686 43.4947C3.93359 44.7875 9.58746 45.8978 16.4471 45.9931C23.3067 46.0884 28.9866 45.1366 29.1356 43.8438L34 1.74486L0 1.27783Z" fill="url(#paint0_linear_866_1796)"/>
<g opacity="0.64">
<path opacity="0.64" d="M30.9022 9.78946C30.9482 9.75391 30.9728 9.71997 30.9728 9.68442C30.9728 9.09781 24.703 8.53543 16.9541 8.42877C9.20519 8.32212 2.9185 8.70996 2.90775 9.29819C2.90775 9.33374 2.93079 9.3693 2.97534 9.40485H2.86475L6.04725 42.4783C6.14556 43.4932 10.8272 44.3626 16.5056 44.4418C22.184 44.5209 26.8856 43.7776 27.01 42.7659L31.0143 9.79916L30.9022 9.78946Z" fill="white"/>
</g>
<path d="M33.9523 1.61019C33.9616 0.861443 26.3806 0.149948 17.0198 0.0210203C7.65886 -0.107908 0.0628053 0.394554 0.0534893 1.1433C0.0441732 1.89205 7.62512 2.60354 16.986 2.73247C26.3469 2.8614 33.943 2.35893 33.9523 1.61019Z" fill="#C5CCD7"/>
<g opacity="0.51">
<path opacity="0.51" d="M31.0155 9.59913C31.0155 10.1292 24.6842 10.4734 16.8846 10.3667C9.08503 10.2601 2.78146 9.74134 2.7876 9.21128C2.79375 8.68123 9.11883 8.3354 16.9184 8.44367C24.718 8.55195 31.0262 9.06746 31.0155 9.59913Z" fill="white"/>
</g>
<path d="M14.6364 25.0869C14.7214 23.9201 14.7813 22.7528 14.8161 21.585C14.8361 20.9386 13.8761 20.8901 13.8561 21.543C13.8244 22.6096 13.7732 23.6756 13.7025 24.7411L11.3249 24.6377C11.3464 23.8781 11.3674 23.1197 11.3878 22.3623C11.4047 21.7159 10.4448 21.6674 10.4263 22.3203C10.372 24.2854 10.3208 26.251 10.2727 28.2171C10.2543 28.8635 11.2143 28.912 11.2327 28.2592C11.2562 27.3897 11.2798 26.5192 11.3034 25.6477L13.6334 25.7495C13.5505 26.7902 13.4481 27.8282 13.3262 28.8635C13.2509 29.51 14.2109 29.5471 14.2862 28.9056C14.4183 27.7808 14.5278 26.6539 14.6149 25.5249C14.646 25.457 14.6639 25.3834 14.6676 25.3082C14.6713 25.233 14.6607 25.1577 14.6364 25.0869Z" fill="white"/>
<path d="M16.7973 32.5688C16.7205 32.5688 16.0999 32.5041 15.8665 32.475C15.9957 32.3686 16.1141 32.2484 16.2198 32.1163C16.3104 32.0161 16.4071 31.9223 16.4962 31.8189C16.8664 31.3858 17.1429 30.8493 16.9969 30.253C16.7374 29.1897 15.3227 29.1218 15.0662 30.2223C14.9126 30.8525 15.8342 31.1644 15.9878 30.531C16.1552 30.531 16.1629 30.636 16.0093 30.8412C15.9285 30.9833 15.8293 31.1127 15.7144 31.2258C15.5793 31.3761 15.4349 31.5183 15.3074 31.6767C15.0755 31.9692 14.8466 32.3328 14.8927 32.7336C14.9956 33.6273 16.1522 33.5125 16.7635 33.5788C17.3748 33.645 17.4101 32.6431 16.7973 32.5688Z" fill="white"/>
<path d="M21.1136 22.3428C21.1088 22.2244 21.0599 22.1127 20.9774 22.0319C20.8949 21.9511 20.7855 21.9078 20.6728 21.9113C19.0601 21.8903 18.2429 24.4048 18.2015 25.7785C18.1538 27.3137 18.8635 29.1915 20.5607 29.2141C22.2272 29.2367 23.2471 27.59 23.3884 26.0031C23.5113 24.6214 22.539 22.5933 21.1136 22.3428ZM22.4023 26.1792C22.2487 27.1796 21.5422 28.3463 20.4301 28.1912C19.3181 28.036 19.1031 26.559 19.1706 25.6249C19.2053 25.1568 19.3154 24.6983 19.4963 24.2691C19.633 23.9459 19.934 23.2995 20.3057 23.0361C20.3529 23.1313 20.427 23.2088 20.5177 23.258C20.6085 23.3072 20.7115 23.3256 20.8126 23.3108C21.3317 23.2445 21.9292 24.1188 22.1566 24.5244C22.4244 25.0272 22.5117 25.6145 22.4023 26.1792Z" fill="white"/>
<defs>
<linearGradient id="paint0_linear_866_1796" x1="34" y1="45.9997" x2="-11.4291" y2="43.3271" gradientUnits="userSpaceOnUse">
<stop stop-color="#92A3FD"/>
<stop offset="1" stop-color="#9DCEFF"/>
</linearGradient>
</defs>
</svg>
