<svg width="28" height="28" viewBox="0 0 28 28" fill="none" xmlns="http://www.w3.org/2000/svg">
<path d="M26.1331 19.6C26.0864 19.6 21.2518 19.5533 20.5051 16.576C19.6091 13.0107 17.7424 11.2 14.9331 11.2V9.23999C17.0611 8.81066 18.6664 6.92533 18.6664 4.66667C18.6664 2.09067 16.5758 0 13.9998 0C11.4238 0 9.33311 2.09067 9.33311 4.66667C9.33311 6.916 10.9384 8.80133 13.0664 9.23999V11.2C11.1344 11.2 8.6051 12.1333 7.49444 16.576C6.74777 19.5533 1.91311 19.6 1.86644 19.6C1.35311 19.6 0.933105 20.02 0.933105 20.5333C0.933105 21.0467 1.35311 21.4667 1.86644 21.4667C2.12777 21.4667 8.20377 21.42 9.30511 17.024C9.96777 14.364 11.1998 13.0667 13.0664 13.0667V24.472L4.89044 22.428C4.38644 22.2973 3.88244 22.6053 3.7611 23.1093C3.63977 23.6133 3.93844 24.1173 4.44244 24.2387L19.3758 27.972C19.4504 27.9907 19.5251 28 19.5998 28C20.0198 28 20.4024 27.72 20.5051 27.2907C20.6264 26.7867 20.3278 26.2827 19.8238 26.1613L17.8451 25.6667L23.5571 24.2387C24.0611 24.1173 24.3598 23.604 24.2384 23.1093C24.1171 22.6053 23.6038 22.3067 23.1091 22.428L14.9331 24.472V13.0667C16.1184 13.0667 17.8078 13.4773 18.6944 17.024C19.7958 21.4107 25.8718 21.4667 26.1331 21.4667C26.6464 21.4667 27.0664 21.0467 27.0664 20.5333C27.0664 20.02 26.6464 19.6 26.1331 19.6ZM9.10911 25.928L8.17577 26.1613C7.67177 26.2827 7.3731 26.796 7.49444 27.2907C7.5971 27.72 7.97977 28 8.39977 28C8.47444 28 8.5491 27.9907 8.62377 27.972L9.5571 27.7387C10.0611 27.6173 10.3598 27.104 10.2384 26.6093C10.1171 26.1053 9.60377 25.7973 9.10911 25.928ZM11.1998 4.66667C11.1998 3.12667 12.4598 1.86667 13.9998 1.86667C15.5398 1.86667 16.7998 3.12667 16.7998 4.66667C16.7998 6.20667 15.5398 7.46667 13.9998 7.46667C12.4598 7.46667 11.1998 6.20667 11.1998 4.66667Z" fill="#F26B2C"/>
</svg>
